<svg width="50" height="50" viewBox="0 0 50 50" fill="none" xmlns="http://www.w3.org/2000/svg">
<path d="M0 25C0 11.1929 11.1929 0 25 0C38.8071 0 50 11.1929 50 25C50 38.8071 38.8071 50 25 50C11.1929 50 0 38.8071 0 25Z" fill="white" fill-opacity="0.9"/>
<path fill-rule="evenodd" clip-rule="evenodd" d="M18.7929 15.6025C18.0418 14.8194 16.7581 14.7967 15.9258 15.5517C15.0934 16.3067 15.0275 17.5535 15.7786 18.3366L22.1792 25.0092L15.6144 31.4359C14.8131 32.2203 14.793 33.4735 15.5694 34.2349C16.3459 34.9964 17.6249 34.9777 18.4263 34.1933L24.9049 27.8508L31.1983 34.4117C31.9494 35.1947 33.233 35.2174 34.0654 34.4624C34.8977 33.7074 34.9636 32.4606 34.2125 31.6776L27.812 25.005L34.3767 18.5783C35.178 17.7938 35.1982 16.5406 34.4217 15.7792C33.6452 15.0178 32.3662 15.0364 31.5649 15.8209L25.0862 22.1633L18.7929 15.6025Z" fill="url(#paint0_radial_304_1426)"/>
<defs>
<radialGradient id="paint0_radial_304_1426" cx="0" cy="0" r="1" gradientUnits="userSpaceOnUse" gradientTransform="translate(32.6812 19.931) rotate(98.5377) scale(51.7693 64.1609)">
<stop stop-color="#C27FCF"/>
<stop offset="1" stop-color="#0368FF"/>
</radialGradient>
</defs>
</svg>
