<svg width="45" height="45" viewBox="0 0 45 45" fill="none" xmlns="http://www.w3.org/2000/svg">
<path d="M11.0361 10.0295C6.98824 14.0779 6.98779 20.631 11.0358 24.6802C14.6319 28.277 20.2316 28.662 24.2673 25.8528L26.0573 27.6434C25.7622 28.228 25.8453 28.9877 26.3213 29.4638C28.517 31.6601 31.2005 34.3443 33.4008 36.5451C34.0069 37.1516 34.9933 37.1516 35.5994 36.5451L37.5446 34.5997C38.1514 33.9927 38.1522 33.0082 37.5446 32.4004C37.4589 32.3147 31.3714 26.2256 30.4651 25.319C30.0022 24.856 29.2821 24.7097 28.6406 25.0506L26.8575 23.2668C29.6596 19.2546 29.3135 13.661 25.6826 10.0295C21.6446 5.99018 15.074 5.99018 11.0361 10.0295ZM26.964 28.8209C26.7482 28.6046 26.735 28.2533 26.9009 28.0047C27.0602 27.9119 26.7882 28.13 28.9423 25.9952C29.262 25.6754 29.6291 25.7689 29.8222 25.9619L30.534 26.6739L27.6757 29.5328L26.964 28.8209ZM35.5473 31.6884L32.6891 34.5475L28.3184 30.1757L31.1767 27.3168L35.5473 31.6884ZM34.9567 35.9023C34.7048 36.154 34.2954 36.154 34.0435 35.9023L33.3318 35.1904L36.19 32.3314L36.9019 33.0433C37.1468 33.2887 37.1444 33.7138 36.9019 33.9568L34.9567 35.9023ZM27.9449 25.6405L26.6427 26.9431L24.9985 25.2985C25.2324 25.1026 25.4628 24.9 25.6826 24.6802C25.9015 24.4612 26.1055 24.2315 26.3022 23.9971L27.9449 25.6405ZM25.0399 10.6723C26.8244 12.4573 27.8071 14.8304 27.8071 17.3546C27.8071 19.5606 27.0563 21.651 25.6761 23.3345L24.3498 24.661C20.6423 27.7069 15.1406 27.5001 11.6785 24.0373C7.98618 20.3435 7.98595 14.3661 11.6788 10.6723C15.3625 6.98779 21.3561 6.98779 25.0399 10.6723Z" fill="white"/>
<path d="M13.198 12.1942C10.2674 15.1268 10.2672 19.8729 13.198 22.8058C16.1215 25.7314 20.8783 25.7314 23.802 22.8058C26.7326 19.8732 26.7328 15.1271 23.802 12.1942C20.8783 9.26861 16.1215 9.26861 13.198 12.1942ZM23.2129 12.7836C25.8179 15.3904 25.818 19.6095 23.2129 22.2164C20.6141 24.8169 16.3857 24.8169 13.7871 22.2164C11.1821 19.6096 11.182 15.3905 13.7871 12.7836C16.3857 10.1831 20.6141 10.1831 23.2129 12.7836Z" fill="white"/>
<path d="M13.044 16.3307C12.9398 16.5599 13.027 16.8386 13.239 16.9521C13.4514 17.0653 13.7086 16.9711 13.8136 16.7412C14.0811 16.1547 14.4204 15.6033 14.8222 15.1025C14.9774 14.9087 14.9583 14.616 14.7793 14.448C14.6002 14.2802 14.3293 14.301 14.1741 14.4945C13.7243 15.0553 13.3441 15.6731 13.044 16.3307ZM17.4143 12.0321C16.7626 12.3083 16.1424 12.6736 15.5707 13.1176C15.3782 13.2671 15.3342 13.5566 15.4726 13.765C15.6107 13.973 15.8788 14.0206 16.0713 13.8711C16.585 13.4722 17.1422 13.1441 17.7273 12.8961C17.9475 12.8027 18.057 12.5341 17.9703 12.2949C17.8838 12.0564 17.6349 11.9386 17.4143 12.0321Z" fill="white"/>
</svg>
