<svg width="45" height="45" viewBox="0 0 45 45" fill="none" xmlns="http://www.w3.org/2000/svg">
<g clip-path="url(#clip0_255_1095)">
<path d="M38.1316 10H6.86842C6.39079 10 6 10.4327 6 10.9615V34.0385C6 34.5673 6.39079 35 6.86842 35H38.1316C38.6092 35 39 34.5673 39 34.0385V10.9615C39 10.4327 38.6092 10 38.1316 10ZM12.0789 33.0769H7.73684V29.2308H12.0789V33.0769ZM12.0789 27.3077H7.73684V23.4615H12.0789V27.3077ZM12.0789 21.5385H7.73684V17.6923H12.0789V21.5385ZM12.0789 15.7692H7.73684V11.9231H12.0789V15.7692ZM31.1842 33.0769H13.8158V11.9231H31.1842V33.0769ZM37.2632 33.0769H32.9211V29.2308H37.2632V33.0769ZM37.2632 27.3077H32.9211V23.4615H37.2632V27.3077ZM37.2632 21.5385H32.9211V17.6923H37.2632V21.5385ZM37.2632 15.7692H32.9211V11.9231H37.2632V15.7692Z" fill="white"/>
<path d="M361.8 -292.5V465.3H-441V-292.5H361.8ZM365.4 -296.1H-444.6V468.9H365.4V-296.1Z" fill="#0000FF"/>
</g>
<defs>
<clipPath id="clip0_255_1095">
<rect width="45" height="45" fill="white"/>
</clipPath>
</defs>
</svg>
