<svg width="45" height="45" viewBox="0 0 45 45" fill="none" xmlns="http://www.w3.org/2000/svg">
<path d="M20.7413 35.5486H14.3077C12.223 35.5413 10.5328 33.9195 10.5175 31.9119V19.5876C10.5216 18.9155 10.8338 18.2796 11.3706 17.8501L12.5035 17.0419C12.9171 16.6176 12.9591 15.97 12.6037 15.4993C12.2482 15.0286 11.5956 14.8677 11.049 15.1158L9.88811 15.9509C8.71714 16.8235 8.02225 18.1619 8 19.5876V31.9254C8.00769 35.2772 10.8272 37.9926 14.3077 38H20.7413C21.4364 38 22 37.4573 22 36.7878C22 36.1183 21.4364 35.5755 20.7413 35.5755V35.5486Z" fill="white"/>
<path d="M38 19.4044C37.9855 17.9762 37.3243 16.6294 36.1979 15.7342L26.692 8.24436C24.6031 6.58521 21.6275 6.58521 19.5386 8.24436L16.5259 10.4057C15.9599 10.8073 15.8305 11.5863 16.237 12.1456C16.6435 12.7049 17.4318 12.8327 17.9978 12.4311L21.0518 10.1746C22.2505 9.19947 23.9801 9.19947 25.1788 10.1746L34.6846 17.6645C35.2318 18.093 35.555 18.7418 35.5651 19.4316V31.883C35.5651 33.91 33.9021 35.5532 31.8508 35.5532H29.0307C28.742 35.5532 28.5079 35.3219 28.5079 35.0367V29.4227C28.5079 27.6337 27.0443 26.1814 25.2338 26.1739H21.1068C20.2348 26.1739 19.3986 26.5161 18.782 27.1254C18.1654 27.7347 17.819 28.561 17.819 29.4227V31.5704C17.819 32.246 18.3733 32.7938 19.0571 32.7938C19.7409 32.7938 20.2952 32.246 20.2952 31.5704V29.4227C20.2915 29.2112 20.3739 29.0072 20.524 28.8564C20.674 28.7055 20.8791 28.6206 21.0931 28.6207H25.2201C25.6607 28.6207 26.018 28.9736 26.018 29.4091V35.0367C26.0255 36.6755 27.3722 38 29.0307 38H31.782C35.2085 38 37.9862 35.2553 37.9862 31.8694L38 19.4044Z" fill="white"/>
</svg>
