<svg width="30" height="30" viewBox="0 0 30 30" fill="none" xmlns="http://www.w3.org/2000/svg">
<path d="M27.5 21.372C27.3599 21.7153 27.2694 22.0914 27.0693 22.3948C26.6741 22.9939 26.0673 23.2591 25.3582 23.292C25.3105 23.2942 25.2626 23.2934 25.2147 23.2934C18.574 23.2934 11.9333 23.2928 5.29269 23.2941C4.53808 23.2943 3.90819 23.0355 3.44059 22.4251C3.13772 22.0296 3.00341 21.5747 3.0031 21.0825C3.00076 16.7928 2.9967 12.5031 3.00486 8.21342C3.00727 6.91543 3.95355 6.00313 5.26719 6.00169C8.01758 5.99859 10.7679 6.00071 13.5183 6.00071C17.4166 6.00071 21.3149 6.00046 25.2132 6.00083C26.1487 6.00091 26.8593 6.39011 27.2811 7.24278C27.3854 7.45362 27.4287 7.69483 27.5 7.92211V21.372ZM5.47727 7.44729C5.54914 7.52543 5.58878 7.57183 5.63181 7.61488C8.30527 10.2852 10.9769 12.9574 13.6539 15.6242C14.6143 16.5812 15.8969 16.5733 16.8623 15.6105C19.5267 12.9537 22.188 10.2937 24.85 7.6345C24.9016 7.58289 24.9475 7.52558 25.0171 7.44729H5.47727ZM5.6143 21.8319H24.8792C22.905 19.8098 20.8868 17.7427 18.8406 15.6468C18.4875 16.0082 18.1662 16.3511 17.8301 16.6785C16.8151 17.6675 15.6188 17.9938 14.2484 17.6287C13.6171 17.4605 13.0901 17.1074 12.6343 16.6436C12.3166 16.3203 12.0007 15.9952 11.658 15.6443C9.61038 17.7407 7.59195 19.8072 5.6143 21.8319ZM10.4839 14.6882C8.4937 12.6582 6.47022 10.5942 4.45565 8.53933V20.8536C6.52118 18.7411 8.5408 16.6755 10.4839 14.6882ZM26.0556 8.52645L26.0031 8.49233C23.9756 10.5595 21.9481 12.6266 19.9127 14.702C21.9314 16.7157 23.9772 18.7566 26.0556 20.83V8.52645Z" fill="white"/>
</svg>
