<svg width="30" height="30" viewBox="0 0 30 30" fill="none" xmlns="http://www.w3.org/2000/svg">
<path d="M19.3359 24.0375C18.872 23.9375 18.4018 23.86 17.9454 23.7327C17.0045 23.4701 16.1285 23.048 15.2856 22.561C12.895 21.1797 10.8521 19.3816 9.03923 17.3126C7.86318 15.9702 6.83583 14.5242 6.04307 12.9204C5.55538 11.9337 5.17141 10.9095 5.04013 9.80871C4.95769 9.11757 4.98028 8.43065 5.31929 7.79827C5.42601 7.59918 5.56497 7.4089 5.72223 7.24675C6.27434 6.67743 6.84638 6.12738 7.40067 5.5601C8.16962 4.77319 9.36348 4.85406 10.0896 5.56153C10.955 6.40476 11.8063 7.26268 12.654 8.1238C13.4009 8.88255 13.4065 10.0194 12.665 10.7115C12.5066 10.8593 12.3037 10.9766 12.1011 11.0566C11.5829 11.261 11.1739 11.5719 10.9486 12.0941C10.7985 12.442 10.778 12.7968 10.8762 13.1642C11.1522 14.1978 11.7393 15.0485 12.4446 15.8263C13.1786 16.6358 14.0099 17.3259 14.9987 17.8071C15.4342 18.0191 15.8826 18.2074 16.3855 18.1418C17.0672 18.0528 17.5861 17.7241 17.8558 17.0739C18.0226 16.6716 18.2193 16.3032 18.6028 16.0632C19.3207 15.6138 20.2054 15.6954 20.8392 16.3127C21.7314 17.1817 22.6143 18.0609 23.4814 18.9548C24.1919 19.6875 24.1654 20.8555 23.4448 21.5886C22.8759 22.1675 22.297 22.7368 21.724 23.3118C21.3178 23.7194 20.8184 23.926 20.2567 24.0022C20.2094 24.0086 20.1635 24.0255 20.1169 24.0375H19.3359Z" fill="white"/>
</svg>
